<?xml version="1.0" encoding="utf-8"?>
<!-- Generator: Adobe Illustrator 22.0.0, SVG Export Plug-In . SVG Version: 6.00 Build 0)  -->
<svg version="1.1" id="Layer_1" xmlns="http://www.w3.org/2000/svg" xmlns:xlink="http://www.w3.org/1999/xlink" x="0px" y="0px"
	 viewBox="0 0 93.7 94.9" style="enable-background:new 0 0 93.7 94.9;" xml:space="preserve">
<style type="text/css">
	.st0{fill:#E50000;}
	.st1{fill:#FFFFFF;}
	.st2{enable-background:new    ;}
</style>
<rect x="17.6" y="45.5" transform="matrix(0.7071 -0.7071 0.7071 0.7071 -20.2145 47.19)" width="58.5" height="5"/>
<rect x="44.3" y="18.8" transform="matrix(0.7071 -0.7071 0.7071 0.7071 -20.2145 47.19)" width="5" height="58.5"/>
<path d="M46.9,92.3C22.4,92.3,2.6,72.5,2.6,48c0-11.7,4.7-23,13-31.3C33-0.5,61-0.3,78.2,17.1c17,17.2,17,45,0,62.2
	C69.9,87.6,58.6,92.3,46.9,92.3z M46.9,8.8C25.2,8.8,7.6,26.3,7.6,48c0,10.4,4.1,20.4,11.5,27.8c15.3,15.3,40.2,15.3,55.5,0
	s15.3-40.2,0-55.5l0,0l0,0C67.3,12.9,57.3,8.7,46.9,8.8z"/>
<g>
	<path class="st0" d="M46.9,8.8C25.2,8.8,7.6,26.3,7.6,48c0,10.4,4.1,20.4,11.5,27.8c15.3,15.3,40.2,15.3,55.5,0s15.3-40.2,0-55.5
		l0,0l0,0C67.3,12.9,57.3,8.7,46.9,8.8z"/>
	<path class="st0" d="M46.9,92.3C22.4,92.3,2.6,72.5,2.6,48c0-11.7,4.7-23,13-31.3C33-0.5,61-0.3,78.2,17.1c17,17.2,17,45,0,62.2
		C69.9,87.6,58.6,92.3,46.9,92.3z"/>
	<rect x="17.6" y="45.5" transform="matrix(0.7071 -0.7071 0.7071 0.7071 -20.2145 47.19)" class="st1" width="58.5" height="5"/>
	<rect x="44.3" y="18.8" transform="matrix(0.7071 -0.7071 0.7071 0.7071 -20.2145 47.19)" class="st1" width="5" height="58.5"/>
</g>
</svg>
